<svg xmlns="http://www.w3.org/2000/svg" xmlns:xlink="http://www.w3.org/1999/xlink" version="1.1" class="marks" width="652" height="449" viewBox="0 0 652 449"><rect width="652" height="449" fill="white"/><g fill="none" stroke-miterlimit="10" transform="translate(45,11)"><g class="mark-group role-frame root" role="graphics-object" aria-roledescription="group mark container"><g transform="translate(0,0)"><path class="background" aria-hidden="true" d="M0,0h600v0h-600Z"/><g><g class="mark-group role-scope concat_0_group" role="graphics-object" aria-roledescription="group mark container"><g transform="translate(0,0)"><path class="background" aria-hidden="true" d="M0.5,0.5h600v300h-600Z" stroke="#ddd"/><g><g class="mark-group role-axis" aria-hidden="true"><g transform="translate(0.5,0.5)"><path class="background" aria-hidden="true" d="M0,0h0v0h0Z" pointer-events="none"/><g><g class="mark-rule role-axis-grid" pointer-events="none"><line transform="translate(0,300)" x2="600" y2="0" stroke="#ddd" stroke-width="1" opacity="1"/><line transform="translate(0,257)" x2="600" y2="0" stroke="#ddd" stroke-width="1" opacity="1"/><line transform="translate(0,214)" x2="600" y2="0" stroke="#ddd" stroke-width="1" opacity="1"/><line transform="translate(0,171)" x2="600" y2="0" stroke="#ddd" stroke-width="1" opacity="1"/><line transform="translate(0,129)" x2="600" y2="0" stroke="#ddd" stroke-width="1" opacity="1"/><line transform="translate(0,86)" x2="600" y2="0" stroke="#ddd" stroke-width="1" opacity="1"/><line transform="translate(0,43)" x2="600" y2="0" stroke="#ddd" stroke-width="1" opacity="1"/><line transform="translate(0,0)" x2="600" y2="0" stroke="#ddd" stroke-width="1" opacity="1"/></g></g><path class="foreground" aria-hidden="true" d="" pointer-events="none" display="none"/></g></g><g class="mark-group role-axis" role="graphics-symbol" aria-roledescription="axis" aria-label="X-axis titled 'Year' for a discrete scale with 24 values: 2000, 2001, 2002, 2003, 2004, ending with 2023"><g transform="translate(0.5,300.5)"><path class="background" aria-hidden="true" d="M0,0h0v0h0Z" pointer-events="none"/><g><g class="mark-rule role-axis-tick" pointer-events="none"><line transform="translate(12,0)" x2="0" y2="5" stroke="#888" stroke-width="1" opacity="1"/><line transform="translate(37,0)" x2="0" y2="5" stroke="#888" stroke-width="1" opacity="1"/><line transform="translate(62,0)" x2="0" y2="5" stroke="#888" stroke-width="1" opacity="1"/><line transform="translate(87,0)" x2="0" y2="5" stroke="#888" stroke-width="1" opacity="1"/><line transform="translate(112,0)" x2="0" y2="5" stroke="#888" stroke-width="1" opacity="1"/><line transform="translate(137,0)" x2="0" y2="5" stroke="#888" stroke-width="1" opacity="1"/><line transform="translate(162,0)" x2="0" y2="5" stroke="#888" stroke-width="1" opacity="1"/><line transform="translate(187,0)" x2="0" y2="5" stroke="#888" stroke-width="1" opacity="1"/><line transform="translate(212,0)" x2="0" y2="5" stroke="#888" stroke-width="1" opacity="1"/><line transform="translate(237,0)" x2="0" y2="5" stroke="#888" stroke-width="1" opacity="1"/><line transform="translate(262,0)" x2="0" y2="5" stroke="#888" stroke-width="1" opacity="1"/><line transform="translate(287,0)" x2="0" y2="5" stroke="#888" stroke-width="1" opacity="1"/><line transform="translate(312,0)" x2="0" y2="5" stroke="#888" stroke-width="1" opacity="1"/><line transform="translate(337,0)" x2="0" y2="5" stroke="#888" stroke-width="1" opacity="1"/><line transform="translate(362,0)" x2="0" y2="5" stroke="#888" stroke-width="1" opacity="1"/><line transform="translate(387,0)" x2="0" y2="5" stroke="#888" stroke-width="1" opacity="1"/><line transform="translate(412,0)" x2="0" y2="5" stroke="#888" stroke-width="1" opacity="1"/><line transform="translate(437,0)" x2="0" y2="5" stroke="#888" stroke-width="1" opacity="1"/><line transform="translate(462,0)" x2="0" y2="5" stroke="#888" stroke-width="1" opacity="1"/><line transform="translate(487,0)" x2="0" y2="5" stroke="#888" stroke-width="1" opacity="1"/><line transform="translate(512,0)" x2="0" y2="5" stroke="#888" stroke-width="1" opacity="1"/><line transform="translate(537,0)" x2="0" y2="5" stroke="#888" stroke-width="1" opacity="1"/><line transform="translate(562,0)" x2="0" y2="5" stroke="#888" stroke-width="1" opacity="1"/><line transform="translate(587,0)" x2="0" y2="5" stroke="#888" stroke-width="1" opacity="1"/></g><g class="mark-text role-axis-label" pointer-events="none"><text text-anchor="end" transform="translate(12,7) rotate(315) translate(0,8)" font-family="sans-serif" font-size="10px" fill="#000" opacity="1">2000</text><text text-anchor="end" transform="translate(37,7) rotate(315) translate(0,8)" font-family="sans-serif" font-size="10px" fill="#000" opacity="1">2001</text><text text-anchor="end" transform="translate(62,7) rotate(315) translate(0,8)" font-family="sans-serif" font-size="10px" fill="#000" opacity="1">2002</text><text text-anchor="end" transform="translate(87,7) rotate(315) translate(0,8)" font-family="sans-serif" font-size="10px" fill="#000" opacity="1">2003</text><text text-anchor="end" transform="translate(112,7) rotate(315) translate(0,8)" font-family="sans-serif" font-size="10px" fill="#000" opacity="1">2004</text><text text-anchor="end" transform="translate(137,7) rotate(315) translate(0,8)" font-family="sans-serif" font-size="10px" fill="#000" opacity="1">2005</text><text text-anchor="end" transform="translate(162,7) rotate(315) translate(0,8)" font-family="sans-serif" font-size="10px" fill="#000" opacity="1">2006</text><text text-anchor="end" transform="translate(187,7) rotate(315) translate(0,8)" font-family="sans-serif" font-size="10px" fill="#000" opacity="1">2007</text><text text-anchor="end" transform="translate(212,7) rotate(315) translate(0,8)" font-family="sans-serif" font-size="10px" fill="#000" opacity="1">2008</text><text text-anchor="end" transform="translate(237,7) rotate(315) translate(0,8)" font-family="sans-serif" font-size="10px" fill="#000" opacity="1">2009</text><text text-anchor="end" transform="translate(262,7) rotate(315) translate(0,8)" font-family="sans-serif" font-size="10px" fill="#000" opacity="1">2010</text><text text-anchor="end" transform="translate(287,7) rotate(315) translate(0,8)" font-family="sans-serif" font-size="10px" fill="#000" opacity="1">2011</text><text text-anchor="end" transform="translate(312,7) rotate(315) translate(0,8)" font-family="sans-serif" font-size="10px" fill="#000" opacity="1">2012</text><text text-anchor="end" transform="translate(337,7) rotate(315) translate(0,8)" font-family="sans-serif" font-size="10px" fill="#000" opacity="1">2013</text><text text-anchor="end" transform="translate(362,7) rotate(315) translate(0,8)" font-family="sans-serif" font-size="10px" fill="#000" opacity="1">2014</text><text text-anchor="end" transform="translate(387,7) rotate(315) translate(0,8)" font-family="sans-serif" font-size="10px" fill="#000" opacity="1">2015</text><text text-anchor="end" transform="translate(412,7) rotate(315) translate(0,8)" font-family="sans-serif" font-size="10px" fill="#000" opacity="1">2016</text><text text-anchor="end" transform="translate(437,7) rotate(315) translate(0,8)" font-family="sans-serif" font-size="10px" fill="#000" opacity="1">2017</text><text text-anchor="end" transform="translate(462,7) rotate(315) translate(0,8)" font-family="sans-serif" font-size="10px" fill="#000" opacity="1">2018</text><text text-anchor="end" transform="translate(487,7) rotate(315) translate(0,8)" font-family="sans-serif" font-size="10px" fill="#000" opacity="1">2019</text><text text-anchor="end" transform="translate(512,7) rotate(315) translate(0,8)" font-family="sans-serif" font-size="10px" fill="#000" opacity="1">2020</text><text text-anchor="end" transform="translate(537,7) rotate(315) translate(0,8)" font-family="sans-serif" font-size="10px" fill="#000" opacity="1">2021</text><text text-anchor="end" transform="translate(562,7) rotate(315) translate(0,8)" font-family="sans-serif" font-size="10px" fill="#000" opacity="1">2022</text><text text-anchor="end" transform="translate(587,7) rotate(315) translate(0,8)" font-family="sans-serif" font-size="10px" fill="#000" opacity="1">2023</text></g><g class="mark-rule role-axis-domain" pointer-events="none"><line transform="translate(0,0)" x2="600" y2="0" stroke="#888" stroke-width="1" opacity="1"/></g><g class="mark-text role-axis-title" pointer-events="none"><text text-anchor="middle" transform="translate(300,42.80143155740217)" font-family="sans-serif" font-size="11px" font-weight="bold" fill="#000" opacity="1">Year</text></g></g><path class="foreground" aria-hidden="true" d="" pointer-events="none" display="none"/></g></g><g class="mark-group role-axis" role="graphics-symbol" aria-roledescription="axis" aria-label="Y-axis titled 'Cumulative Count' for a linear scale with values from 0 to 140"><g transform="translate(0.5,0.5)"><path class="background" aria-hidden="true" d="M0,0h0v0h0Z" pointer-events="none"/><g><g class="mark-rule role-axis-tick" pointer-events="none"><line transform="translate(0,300)" x2="-5" y2="0" stroke="#888" stroke-width="1" opacity="1"/><line transform="translate(0,257)" x2="-5" y2="0" stroke="#888" stroke-width="1" opacity="1"/><line transform="translate(0,214)" x2="-5" y2="0" stroke="#888" stroke-width="1" opacity="1"/><line transform="translate(0,171)" x2="-5" y2="0" stroke="#888" stroke-width="1" opacity="1"/><line transform="translate(0,129)" x2="-5" y2="0" stroke="#888" stroke-width="1" opacity="1"/><line transform="translate(0,86)" x2="-5" y2="0" stroke="#888" stroke-width="1" opacity="1"/><line transform="translate(0,43)" x2="-5" y2="0" stroke="#888" stroke-width="1" opacity="1"/><line transform="translate(0,0)" x2="-5" y2="0" stroke="#888" stroke-width="1" opacity="1"/></g><g class="mark-text role-axis-label" pointer-events="none"><text text-anchor="end" transform="translate(-7,303)" font-family="sans-serif" font-size="10px" fill="#000" opacity="1">0</text><text text-anchor="end" transform="translate(-7,260.14285714285717)" font-family="sans-serif" font-size="10px" fill="#000" opacity="1">20</text><text text-anchor="end" transform="translate(-7,217.28571428571428)" font-family="sans-serif" font-size="10px" fill="#000" opacity="1">40</text><text text-anchor="end" transform="translate(-7,174.42857142857142)" font-family="sans-serif" font-size="10px" fill="#000" opacity="1">60</text><text text-anchor="end" transform="translate(-7,131.57142857142858)" font-family="sans-serif" font-size="10px" fill="#000" opacity="1">80</text><text text-anchor="end" transform="translate(-7,88.71428571428571)" font-family="sans-serif" font-size="10px" fill="#000" opacity="1">100</text><text text-anchor="end" transform="translate(-7,45.85714285714287)" font-family="sans-serif" font-size="10px" fill="#000" opacity="1">120</text><text text-anchor="end" transform="translate(-7,3)" font-family="sans-serif" font-size="10px" fill="#000" opacity="1">140</text></g><g class="mark-rule role-axis-domain" pointer-events="none"><line transform="translate(0,300)" x2="0" y2="-300" stroke="#888" stroke-width="1" opacity="1"/></g><g class="mark-text role-axis-title" pointer-events="none"><text text-anchor="middle" transform="translate(-27.6845703125,150) rotate(-90) translate(0,-2)" font-family="sans-serif" font-size="11px" font-weight="bold" fill="#000" opacity="1">Cumulative Count</text></g></g><path class="foreground" aria-hidden="true" d="" pointer-events="none" display="none"/></g></g><g class="mark-rect role-mark concat_0_marks" role="graphics-object" aria-roledescription="rect mark container"><path aria-label="Year: 2000; Cumulative Count: 0; Computational Group: artificial intelligence (AI)" role="graphics-symbol" aria-roledescription="bar" d="M1.25,300h22.5v0h-22.5Z" fill="#000000" stroke="gray"/><path aria-label="Year: 2000; Cumulative Count: 0; Computational Group: comparative genomics" role="graphics-symbol" aria-roledescription="bar" d="M1.25,300h22.5v0h-22.5Z" fill="#a6cee3" stroke="gray"/><path aria-label="Year: 2000; Cumulative Count: 0; Computational Group: hybrid" role="graphics-symbol" aria-roledescription="bar" d="M1.25,300h22.5v0h-22.5Z" fill="#1f78b4" stroke="gray"/><path aria-label="Year: 2000; Cumulative Count: 1; Computational Group: sequence composition" role="graphics-symbol" aria-roledescription="bar" d="M1.25,297.8571428571429h22.5v2.1428571428571104h-22.5Z" fill="#b2df8a" stroke="gray"/><path aria-label="Year: 2001; Cumulative Count: 1; Computational Group: artificial intelligence (AI)" role="graphics-symbol" aria-roledescription="bar" d="M26.25,297.8571428571429h22.5v2.1428571428571104h-22.5Z" fill="#000000" stroke="gray"/><path aria-label="Year: 2001; Cumulative Count: 2; Computational Group: comparative genomics" role="graphics-symbol" aria-roledescription="bar" d="M26.25,293.57142857142856h22.5v4.285714285714334h-22.5Z" fill="#a6cee3" stroke="gray"/><path aria-label="Year: 2001; Cumulative Count: 0; Computational Group: hybrid" role="graphics-symbol" aria-roledescription="bar" d="M26.25,293.57142857142856h22.5v0h-22.5Z" fill="#1f78b4" stroke="gray"/><path aria-label="Year: 2001; Cumulative Count: 1; Computational Group: sequence composition" role="graphics-symbol" aria-roledescription="bar" d="M26.25,291.42857142857144h22.5v2.1428571428571104h-22.5Z" fill="#b2df8a" stroke="gray"/><path aria-label="Year: 2002; Cumulative Count: 1; Computational Group: artificial intelligence (AI)" role="graphics-symbol" aria-roledescription="bar" d="M51.25,297.8571428571429h22.5v2.1428571428571104h-22.5Z" fill="#000000" stroke="gray"/><path aria-label="Year: 2002; Cumulative Count: 2; Computational Group: comparative genomics" role="graphics-symbol" aria-roledescription="bar" d="M51.25,293.57142857142856h22.5v4.285714285714334h-22.5Z" fill="#a6cee3" stroke="gray"/><path aria-label="Year: 2002; Cumulative Count: 0; Computational Group: hybrid" role="graphics-symbol" aria-roledescription="bar" d="M51.25,293.57142857142856h22.5v0h-22.5Z" fill="#1f78b4" stroke="gray"/><path aria-label="Year: 2002; Cumulative Count: 2; Computational Group: sequence composition" role="graphics-symbol" aria-roledescription="bar" d="M51.25,289.2857142857143h22.5v4.285714285714278h-22.5Z" fill="#b2df8a" stroke="gray"/><path aria-label="Year: 2003; Cumulative Count: 1; Computational Group: artificial intelligence (AI)" role="graphics-symbol" aria-roledescription="bar" d="M76.25,297.8571428571429h22.5v2.1428571428571104h-22.5Z" fill="#000000" stroke="gray"/><path aria-label="Year: 2003; Cumulative Count: 3; Computational Group: comparative genomics" role="graphics-symbol" aria-roledescription="bar" d="M76.25,291.42857142857144h22.5v6.428571428571445h-22.5Z" fill="#a6cee3" stroke="gray"/><path aria-label="Year: 2003; Cumulative Count: 0; Computational Group: hybrid" role="graphics-symbol" aria-roledescription="bar" d="M76.25,291.42857142857144h22.5v0h-22.5Z" fill="#1f78b4" stroke="gray"/><path aria-label="Year: 2003; Cumulative Count: 4; Computational Group: sequence composition" role="graphics-symbol" aria-roledescription="bar" d="M76.25,282.85714285714283h22.5v8.571428571428612h-22.5Z" fill="#b2df8a" stroke="gray"/><path aria-label="Year: 2004; Cumulative Count: 1; Computational Group: artificial intelligence (AI)" role="graphics-symbol" aria-roledescription="bar" d="M101.25,297.8571428571429h22.5v2.1428571428571104h-22.5Z" fill="#000000" stroke="gray"/><path aria-label="Year: 2004; Cumulative Count: 4; Computational Group: comparative genomics" role="graphics-symbol" aria-roledescription="bar" d="M101.25,289.2857142857143h22.5v8.571428571428612h-22.5Z" fill="#a6cee3" stroke="gray"/><path aria-label="Year: 2004; Cumulative Count: 1; Computational Group: hybrid" role="graphics-symbol" aria-roledescription="bar" d="M101.25,287.14285714285717h22.5v2.1428571428571104h-22.5Z" fill="#1f78b4" stroke="gray"/><path aria-label="Year: 2004; Cumulative Count: 4; Computational Group: sequence composition" role="graphics-symbol" aria-roledescription="bar" d="M101.25,278.57142857142856h22.5v8.571428571428612h-22.5Z" fill="#b2df8a" stroke="gray"/><path aria-label="Year: 2005; Cumulative Count: 2; Computational Group: artificial intelligence (AI)" role="graphics-symbol" aria-roledescription="bar" d="M126.25,295.7142857142857h22.5v4.285714285714278h-22.5Z" fill="#000000" stroke="gray"/><path aria-label="Year: 2005; Cumulative Count: 6; Computational Group: comparative genomics" role="graphics-symbol" aria-roledescription="bar" d="M126.25,282.85714285714283h22.5v12.85714285714289h-22.5Z" fill="#a6cee3" stroke="gray"/><path aria-label="Year: 2005; Cumulative Count: 4; Computational Group: hybrid" role="graphics-symbol" aria-roledescription="bar" d="M126.25,274.2857142857143h22.5v8.571428571428555h-22.5Z" fill="#1f78b4" stroke="gray"/><path aria-label="Year: 2005; Cumulative Count: 5; Computational Group: sequence composition" role="graphics-symbol" aria-roledescription="bar" d="M126.25,263.57142857142856h22.5v10.714285714285722h-22.5Z" fill="#b2df8a" stroke="gray"/><path aria-label="Year: 2006; Cumulative Count: 2; Computational Group: artificial intelligence (AI)" role="graphics-symbol" aria-roledescription="bar" d="M151.25,295.7142857142857h22.5v4.285714285714278h-22.5Z" fill="#000000" stroke="gray"/><path aria-label="Year: 2006; Cumulative Count: 9; Computational Group: comparative genomics" role="graphics-symbol" aria-roledescription="bar" d="M151.25,276.42857142857144h22.5v19.285714285714278h-22.5Z" fill="#a6cee3" stroke="gray"/><path aria-label="Year: 2006; Cumulative Count: 6; Computational Group: hybrid" role="graphics-symbol" aria-roledescription="bar" d="M151.25,263.57142857142856h22.5v12.85714285714289h-22.5Z" fill="#1f78b4" stroke="gray"/><path aria-label="Year: 2006; Cumulative Count: 6; Computational Group: sequence composition" role="graphics-symbol" aria-roledescription="bar" d="M151.25,250.71428571428572h22.5v12.857142857142833h-22.5Z" fill="#b2df8a" stroke="gray"/><path aria-label="Year: 2007; Cumulative Count: 2; Computational Group: artificial intelligence (AI)" role="graphics-symbol" aria-roledescription="bar" d="M176.25,295.7142857142857h22.5v4.285714285714278h-22.5Z" fill="#000000" stroke="gray"/><path aria-label="Year: 2007; Cumulative Count: 11; Computational Group: comparative genomics" role="graphics-symbol" aria-roledescription="bar" d="M176.25,272.14285714285717h22.5v23.571428571428555h-22.5Z" fill="#a6cee3" stroke="gray"/><path aria-label="Year: 2007; Cumulative Count: 7; Computational Group: hybrid" role="graphics-symbol" aria-roledescription="bar" d="M176.25,257.14285714285717h22.5v15h-22.5Z" fill="#1f78b4" stroke="gray"/><path aria-label="Year: 2007; Cumulative Count: 8; Computational Group: sequence composition" role="graphics-symbol" aria-roledescription="bar" d="M176.25,240h22.5v17.142857142857167h-22.5Z" fill="#b2df8a" stroke="gray"/><path aria-label="Year: 2008; Cumulative Count: 3; Computational Group: artificial intelligence (AI)" role="graphics-symbol" aria-roledescription="bar" d="M201.25,293.57142857142856h22.5v6.428571428571445h-22.5Z" fill="#000000" stroke="gray"/><path aria-label="Year: 2008; Cumulative Count: 13; Computational Group: comparative genomics" role="graphics-symbol" aria-roledescription="bar" d="M201.25,265.7142857142857h22.5v27.857142857142833h-22.5Z" fill="#a6cee3" stroke="gray"/><path aria-label="Year: 2008; Cumulative Count: 8; Computational Group: hybrid" role="graphics-symbol" aria-roledescription="bar" d="M201.25,248.57142857142856h22.5v17.142857142857167h-22.5Z" fill="#1f78b4" stroke="gray"/><path aria-label="Year: 2008; Cumulative Count: 10; Computational Group: sequence composition" role="graphics-symbol" aria-roledescription="bar" d="M201.25,227.14285714285714h22.5v21.428571428571416h-22.5Z" fill="#b2df8a" stroke="gray"/><path aria-label="Year: 2009; Cumulative Count: 3; Computational Group: artificial intelligence (AI)" role="graphics-symbol" aria-roledescription="bar" d="M226.25,293.57142857142856h22.5v6.428571428571445h-22.5Z" fill="#000000" stroke="gray"/><path aria-label="Year: 2009; Cumulative Count: 13; Computational Group: comparative genomics" role="graphics-symbol" aria-roledescription="bar" d="M226.25,265.7142857142857h22.5v27.857142857142833h-22.5Z" fill="#a6cee3" stroke="gray"/><path aria-label="Year: 2009; Cumulative Count: 9; Computational Group: hybrid" role="graphics-symbol" aria-roledescription="bar" d="M226.25,246.42857142857142h22.5v19.285714285714306h-22.5Z" fill="#1f78b4" stroke="gray"/><path aria-label="Year: 2009; Cumulative Count: 11; Computational Group: sequence composition" role="graphics-symbol" aria-roledescription="bar" d="M226.25,222.85714285714286h22.5v23.571428571428555h-22.5Z" fill="#b2df8a" stroke="gray"/><path aria-label="Year: 2010; Cumulative Count: 5; Computational Group: artificial intelligence (AI)" role="graphics-symbol" aria-roledescription="bar" d="M251.25,289.2857142857143h22.5v10.714285714285722h-22.5Z" fill="#000000" stroke="gray"/><path aria-label="Year: 2010; Cumulative Count: 14; Computational Group: comparative genomics" role="graphics-symbol" aria-roledescription="bar" d="M251.25,259.2857142857143h22.5v30h-22.5Z" fill="#a6cee3" stroke="gray"/><path aria-label="Year: 2010; Cumulative Count: 9; Computational Group: hybrid" role="graphics-symbol" aria-roledescription="bar" d="M251.25,240h22.5v19.285714285714278h-22.5Z" fill="#1f78b4" stroke="gray"/><path aria-label="Year: 2010; Cumulative Count: 11; Computational Group: sequence composition" role="graphics-symbol" aria-roledescription="bar" d="M251.25,216.42857142857142h22.5v23.571428571428584h-22.5Z" fill="#b2df8a" stroke="gray"/><path aria-label="Year: 2011; Cumulative Count: 5; Computational Group: artificial intelligence (AI)" role="graphics-symbol" aria-roledescription="bar" d="M276.25,289.2857142857143h22.5v10.714285714285722h-22.5Z" fill="#000000" stroke="gray"/><path aria-label="Year: 2011; Cumulative Count: 16; Computational Group: comparative genomics" role="graphics-symbol" aria-roledescription="bar" d="M276.25,255h22.5v34.28571428571428h-22.5Z" fill="#a6cee3" stroke="gray"/><path aria-label="Year: 2011; Cumulative Count: 10; Computational Group: hybrid" role="graphics-symbol" aria-roledescription="bar" d="M276.25,233.57142857142858h22.5v21.428571428571416h-22.5Z" fill="#1f78b4" stroke="gray"/><path aria-label="Year: 2011; Cumulative Count: 12; Computational Group: sequence composition" role="graphics-symbol" aria-roledescription="bar" d="M276.25,207.85714285714286h22.5v25.714285714285722h-22.5Z" fill="#b2df8a" stroke="gray"/><path aria-label="Year: 2012; Cumulative Count: 7; Computational Group: artificial intelligence (AI)" role="graphics-symbol" aria-roledescription="bar" d="M301.25,285h22.5v15h-22.5Z" fill="#000000" stroke="gray"/><path aria-label="Year: 2012; Cumulative Count: 17; Computational Group: comparative genomics" role="graphics-symbol" aria-roledescription="bar" d="M301.25,248.57142857142856h22.5v36.428571428571445h-22.5Z" fill="#a6cee3" stroke="gray"/><path aria-label="Year: 2012; Cumulative Count: 12; Computational Group: hybrid" role="graphics-symbol" aria-roledescription="bar" d="M301.25,222.85714285714286h22.5v25.714285714285694h-22.5Z" fill="#1f78b4" stroke="gray"/><path aria-label="Year: 2012; Cumulative Count: 13; Computational Group: sequence composition" role="graphics-symbol" aria-roledescription="bar" d="M301.25,195h22.5v27.85714285714286h-22.5Z" fill="#b2df8a" stroke="gray"/><path aria-label="Year: 2013; Cumulative Count: 7; Computational Group: artificial intelligence (AI)" role="graphics-symbol" aria-roledescription="bar" d="M326.25,285h22.5v15h-22.5Z" fill="#000000" stroke="gray"/><path aria-label="Year: 2013; Cumulative Count: 18; Computational Group: comparative genomics" role="graphics-symbol" aria-roledescription="bar" d="M326.25,246.42857142857142h22.5v38.571428571428584h-22.5Z" fill="#a6cee3" stroke="gray"/><path aria-label="Year: 2013; Cumulative Count: 13; Computational Group: hybrid" role="graphics-symbol" aria-roledescription="bar" d="M326.25,218.57142857142858h22.5v27.857142857142833h-22.5Z" fill="#1f78b4" stroke="gray"/><path aria-label="Year: 2013; Cumulative Count: 14; Computational Group: sequence composition" role="graphics-symbol" aria-roledescription="bar" d="M326.25,188.57142857142856h22.5v30.00000000000003h-22.5Z" fill="#b2df8a" stroke="gray"/><path aria-label="Year: 2014; Cumulative Count: 9; Computational Group: artificial intelligence (AI)" role="graphics-symbol" aria-roledescription="bar" d="M351.25,280.7142857142857h22.5v19.285714285714278h-22.5Z" fill="#000000" stroke="gray"/><path aria-label="Year: 2014; Cumulative Count: 20; Computational Group: comparative genomics" role="graphics-symbol" aria-roledescription="bar" d="M351.25,237.85714285714283h22.5v42.85714285714289h-22.5Z" fill="#a6cee3" stroke="gray"/><path aria-label="Year: 2014; Cumulative Count: 13; Computational Group: hybrid" role="graphics-symbol" aria-roledescription="bar" d="M351.25,210h22.5v27.857142857142833h-22.5Z" fill="#1f78b4" stroke="gray"/><path aria-label="Year: 2014; Cumulative Count: 16; Computational Group: sequence composition" role="graphics-symbol" aria-roledescription="bar" d="M351.25,175.7142857142857h22.5v34.285714285714306h-22.5Z" fill="#b2df8a" stroke="gray"/><path aria-label="Year: 2015; Cumulative Count: 10; Computational Group: artificial intelligence (AI)" role="graphics-symbol" aria-roledescription="bar" d="M376.25,278.57142857142856h22.5v21.428571428571445h-22.5Z" fill="#000000" stroke="gray"/><path aria-label="Year: 2015; Cumulative Count: 25; Computational Group: comparative genomics" role="graphics-symbol" aria-roledescription="bar" d="M376.25,225h22.5v53.571428571428555h-22.5Z" fill="#a6cee3" stroke="gray"/><path aria-label="Year: 2015; Cumulative Count: 15; Computational Group: hybrid" role="graphics-symbol" aria-roledescription="bar" d="M376.25,192.85714285714283h22.5v32.14285714285717h-22.5Z" fill="#1f78b4" stroke="gray"/><path aria-label="Year: 2015; Cumulative Count: 16; Computational Group: sequence composition" role="graphics-symbol" aria-roledescription="bar" d="M376.25,158.57142857142858h22.5v34.28571428571425h-22.5Z" fill="#b2df8a" stroke="gray"/><path aria-label="Year: 2016; Cumulative Count: 12; Computational Group: artificial intelligence (AI)" role="graphics-symbol" aria-roledescription="bar" d="M401.25,274.2857142857143h22.5v25.714285714285722h-22.5Z" fill="#000000" stroke="gray"/><path aria-label="Year: 2016; Cumulative Count: 30; Computational Group: comparative genomics" role="graphics-symbol" aria-roledescription="bar" d="M401.25,210h22.5v64.28571428571428h-22.5Z" fill="#a6cee3" stroke="gray"/><path aria-label="Year: 2016; Cumulative Count: 15; Computational Group: hybrid" role="graphics-symbol" aria-roledescription="bar" d="M401.25,177.85714285714286h22.5v32.14285714285714h-22.5Z" fill="#1f78b4" stroke="gray"/><path aria-label="Year: 2016; Cumulative Count: 18; Computational Group: sequence composition" role="graphics-symbol" aria-roledescription="bar" d="M401.25,139.28571428571428h22.5v38.571428571428584h-22.5Z" fill="#b2df8a" stroke="gray"/><path aria-label="Year: 2017; Cumulative Count: 13; Computational Group: artificial intelligence (AI)" role="graphics-symbol" aria-roledescription="bar" d="M426.25,272.14285714285717h22.5v27.857142857142833h-22.5Z" fill="#000000" stroke="gray"/><path aria-label="Year: 2017; Cumulative Count: 32; Computational Group: comparative genomics" role="graphics-symbol" aria-roledescription="bar" d="M426.25,203.57142857142858h22.5v68.57142857142858h-22.5Z" fill="#a6cee3" stroke="gray"/><path aria-label="Year: 2017; Cumulative Count: 16; Computational Group: hybrid" role="graphics-symbol" aria-roledescription="bar" d="M426.25,169.28571428571428h22.5v34.285714285714306h-22.5Z" fill="#1f78b4" stroke="gray"/><path aria-label="Year: 2017; Cumulative Count: 18; Computational Group: sequence composition" role="graphics-symbol" aria-roledescription="bar" d="M426.25,130.71428571428572h22.5v38.571428571428555h-22.5Z" fill="#b2df8a" stroke="gray"/><path aria-label="Year: 2018; Cumulative Count: 17; Computational Group: artificial intelligence (AI)" role="graphics-symbol" aria-roledescription="bar" d="M451.25,263.57142857142856h22.5v36.428571428571445h-22.5Z" fill="#000000" stroke="gray"/><path aria-label="Year: 2018; Cumulative Count: 39; Computational Group: comparative genomics" role="graphics-symbol" aria-roledescription="bar" d="M451.25,180h22.5v83.57142857142856h-22.5Z" fill="#a6cee3" stroke="gray"/><path aria-label="Year: 2018; Cumulative Count: 18; Computational Group: hybrid" role="graphics-symbol" aria-roledescription="bar" d="M451.25,141.42857142857142h22.5v38.571428571428584h-22.5Z" fill="#1f78b4" stroke="gray"/><path aria-label="Year: 2018; Cumulative Count: 18; Computational Group: sequence composition" role="graphics-symbol" aria-roledescription="bar" d="M451.25,102.85714285714286h22.5v38.571428571428555h-22.5Z" fill="#b2df8a" stroke="gray"/><path aria-label="Year: 2019; Cumulative Count: 17; Computational Group: artificial intelligence (AI)" role="graphics-symbol" aria-roledescription="bar" d="M476.25,263.57142857142856h22.5v36.428571428571445h-22.5Z" fill="#000000" stroke="gray"/><path aria-label="Year: 2019; Cumulative Count: 44; Computational Group: comparative genomics" role="graphics-symbol" aria-roledescription="bar" d="M476.25,169.28571428571428h22.5v94.28571428571428h-22.5Z" fill="#a6cee3" stroke="gray"/><path aria-label="Year: 2019; Cumulative Count: 19; Computational Group: hybrid" role="graphics-symbol" aria-roledescription="bar" d="M476.25,128.57142857142858h22.5v40.714285714285694h-22.5Z" fill="#1f78b4" stroke="gray"/><path aria-label="Year: 2019; Cumulative Count: 18; Computational Group: sequence composition" role="graphics-symbol" aria-roledescription="bar" d="M476.25,90.00000000000001h22.5v38.57142857142857h-22.5Z" fill="#b2df8a" stroke="gray"/><path aria-label="Year: 2020; Cumulative Count: 19; Computational Group: artificial intelligence (AI)" role="graphics-symbol" aria-roledescription="bar" d="M501.25,259.2857142857143h22.5v40.71428571428572h-22.5Z" fill="#000000" stroke="gray"/><path aria-label="Year: 2020; Cumulative Count: 49; Computational Group: comparative genomics" role="graphics-symbol" aria-roledescription="bar" d="M501.25,154.28571428571428h22.5v105h-22.5Z" fill="#a6cee3" stroke="gray"/><path aria-label="Year: 2020; Cumulative Count: 21; Computational Group: hybrid" role="graphics-symbol" aria-roledescription="bar" d="M501.25,109.28571428571429h22.5v44.999999999999986h-22.5Z" fill="#1f78b4" stroke="gray"/><path aria-label="Year: 2020; Cumulative Count: 19; Computational Group: sequence composition" role="graphics-symbol" aria-roledescription="bar" d="M501.25,68.57142857142856h22.5v40.71428571428574h-22.5Z" fill="#b2df8a" stroke="gray"/><path aria-label="Year: 2021; Cumulative Count: 24; Computational Group: artificial intelligence (AI)" role="graphics-symbol" aria-roledescription="bar" d="M526.25,248.57142857142856h22.5v51.428571428571445h-22.5Z" fill="#000000" stroke="gray"/><path aria-label="Year: 2021; Cumulative Count: 53; Computational Group: comparative genomics" role="graphics-symbol" aria-roledescription="bar" d="M526.25,135h22.5v113.57142857142856h-22.5Z" fill="#a6cee3" stroke="gray"/><path aria-label="Year: 2021; Cumulative Count: 22; Computational Group: hybrid" role="graphics-symbol" aria-roledescription="bar" d="M526.25,87.85714285714285h22.5v47.14285714285715h-22.5Z" fill="#1f78b4" stroke="gray"/><path aria-label="Year: 2021; Cumulative Count: 19; Computational Group: sequence composition" role="graphics-symbol" aria-roledescription="bar" d="M526.25,47.14285714285714h22.5v40.71428571428571h-22.5Z" fill="#b2df8a" stroke="gray"/><path aria-label="Year: 2022; Cumulative Count: 25; Computational Group: artificial intelligence (AI)" role="graphics-symbol" aria-roledescription="bar" d="M551.25,246.42857142857142h22.5v53.571428571428584h-22.5Z" fill="#000000" stroke="gray"/><path aria-label="Year: 2022; Cumulative Count: 53; Computational Group: comparative genomics" role="graphics-symbol" aria-roledescription="bar" d="M551.25,132.85714285714286h22.5v113.57142857142856h-22.5Z" fill="#a6cee3" stroke="gray"/><path aria-label="Year: 2022; Cumulative Count: 27; Computational Group: hybrid" role="graphics-symbol" aria-roledescription="bar" d="M551.25,75h22.5v57.85714285714286h-22.5Z" fill="#1f78b4" stroke="gray"/><path aria-label="Year: 2022; Cumulative Count: 19; Computational Group: sequence composition" role="graphics-symbol" aria-roledescription="bar" d="M551.25,34.2857142857143h22.5v40.7142857142857h-22.5Z" fill="#b2df8a" stroke="gray"/><path aria-label="Year: 2023; Cumulative Count: 27; Computational Group: artificial intelligence (AI)" role="graphics-symbol" aria-roledescription="bar" d="M576.25,242.14285714285714h22.5v57.85714285714286h-22.5Z" fill="#000000" stroke="gray"/><path aria-label="Year: 2023; Cumulative Count: 59; Computational Group: comparative genomics" role="graphics-symbol" aria-roledescription="bar" d="M576.25,115.71428571428571h22.5v126.42857142857143h-22.5Z" fill="#a6cee3" stroke="gray"/><path aria-label="Year: 2023; Cumulative Count: 29; Computational Group: hybrid" role="graphics-symbol" aria-roledescription="bar" d="M576.25,53.571428571428584h22.5v62.142857142857125h-22.5Z" fill="#1f78b4" stroke="gray"/><path aria-label="Year: 2023; Cumulative Count: 19; Computational Group: sequence composition" role="graphics-symbol" aria-roledescription="bar" d="M576.25,12.857142857142845h22.5v40.71428571428574h-22.5Z" fill="#b2df8a" stroke="gray"/></g></g><path class="foreground" aria-hidden="true" d="" display="none"/></g></g><g class="mark-group role-scope concat_1_group" role="graphics-object" aria-roledescription="group mark container"><g transform="translate(0,368)"><path class="background" aria-hidden="true" d="M0.5,0.5h600v20h-600Z" stroke="#ddd"/><g><g class="mark-group role-axis" aria-hidden="true"><g transform="translate(0.5,20.5)"><path class="background" aria-hidden="true" d="M0,0h0v0h0Z" pointer-events="none"/><g><g class="mark-rule role-axis-grid" pointer-events="none"><line transform="translate(0,0)" x2="0" y2="-20" stroke="#ddd" stroke-width="1" opacity="1"/><line transform="translate(30,0)" x2="0" y2="-20" stroke="#ddd" stroke-width="1" opacity="1"/><line transform="translate(60,0)" x2="0" y2="-20" stroke="#ddd" stroke-width="1" opacity="1"/><line transform="translate(90,0)" x2="0" y2="-20" stroke="#ddd" stroke-width="1" opacity="1"/><line transform="translate(120,0)" x2="0" y2="-20" stroke="#ddd" stroke-width="1" opacity="1"/><line transform="translate(150,0)" x2="0" y2="-20" stroke="#ddd" stroke-width="1" opacity="1"/><line transform="translate(180,0)" x2="0" y2="-20" stroke="#ddd" stroke-width="1" opacity="1"/><line transform="translate(210,0)" x2="0" y2="-20" stroke="#ddd" stroke-width="1" opacity="1"/><line transform="translate(240,0)" x2="0" y2="-20" stroke="#ddd" stroke-width="1" opacity="1"/><line transform="translate(270,0)" x2="0" y2="-20" stroke="#ddd" stroke-width="1" opacity="1"/><line transform="translate(300,0)" x2="0" y2="-20" stroke="#ddd" stroke-width="1" opacity="1"/><line transform="translate(330,0)" x2="0" y2="-20" stroke="#ddd" stroke-width="1" opacity="1"/><line transform="translate(360,0)" x2="0" y2="-20" stroke="#ddd" stroke-width="1" opacity="1"/><line transform="translate(390,0)" x2="0" y2="-20" stroke="#ddd" stroke-width="1" opacity="1"/><line transform="translate(420,0)" x2="0" y2="-20" stroke="#ddd" stroke-width="1" opacity="1"/><line transform="translate(450,0)" x2="0" y2="-20" stroke="#ddd" stroke-width="1" opacity="1"/><line transform="translate(480,0)" x2="0" y2="-20" stroke="#ddd" stroke-width="1" opacity="1"/><line transform="translate(510,0)" x2="0" y2="-20" stroke="#ddd" stroke-width="1" opacity="1"/><line transform="translate(540,0)" x2="0" y2="-20" stroke="#ddd" stroke-width="1" opacity="1"/><line transform="translate(570,0)" x2="0" y2="-20" stroke="#ddd" stroke-width="1" opacity="1"/><line transform="translate(600,0)" x2="0" y2="-20" stroke="#ddd" stroke-width="1" opacity="1"/></g></g><path class="foreground" aria-hidden="true" d="" pointer-events="none" display="none"/></g></g><g class="mark-group role-axis" role="graphics-symbol" aria-roledescription="axis" aria-label="X-axis titled 'Proportion' for a linear scale with values from 0% to 100%"><g transform="translate(0.5,20.5)"><path class="background" aria-hidden="true" d="M0,0h0v0h0Z" pointer-events="none"/><g><g class="mark-rule role-axis-tick" pointer-events="none"><line transform="translate(0,0)" x2="0" y2="0" stroke="#888" stroke-width="1" opacity="1"/><line transform="translate(30,0)" x2="0" y2="0" stroke="#888" stroke-width="1" opacity="1"/><line transform="translate(60,0)" x2="0" y2="0" stroke="#888" stroke-width="1" opacity="1"/><line transform="translate(90,0)" x2="0" y2="0" stroke="#888" stroke-width="1" opacity="1"/><line transform="translate(120,0)" x2="0" y2="0" stroke="#888" stroke-width="1" opacity="1"/><line transform="translate(150,0)" x2="0" y2="0" stroke="#888" stroke-width="1" opacity="1"/><line transform="translate(180,0)" x2="0" y2="0" stroke="#888" stroke-width="1" opacity="1"/><line transform="translate(210,0)" x2="0" y2="0" stroke="#888" stroke-width="1" opacity="1"/><line transform="translate(240,0)" x2="0" y2="0" stroke="#888" stroke-width="1" opacity="1"/><line transform="translate(270,0)" x2="0" y2="0" stroke="#888" stroke-width="1" opacity="1"/><line transform="translate(300,0)" x2="0" y2="0" stroke="#888" stroke-width="1" opacity="1"/><line transform="translate(330,0)" x2="0" y2="0" stroke="#888" stroke-width="1" opacity="1"/><line transform="translate(360,0)" x2="0" y2="0" stroke="#888" stroke-width="1" opacity="1"/><line transform="translate(390,0)" x2="0" y2="0" stroke="#888" stroke-width="1" opacity="1"/><line transform="translate(420,0)" x2="0" y2="0" stroke="#888" stroke-width="1" opacity="1"/><line transform="translate(450,0)" x2="0" y2="0" stroke="#888" stroke-width="1" opacity="1"/><line transform="translate(480,0)" x2="0" y2="0" stroke="#888" stroke-width="1" opacity="1"/><line transform="translate(510,0)" x2="0" y2="0" stroke="#888" stroke-width="1" opacity="1"/><line transform="translate(540,0)" x2="0" y2="0" stroke="#888" stroke-width="1" opacity="1"/><line transform="translate(570,0)" x2="0" y2="0" stroke="#888" stroke-width="1" opacity="1"/><line transform="translate(600,0)" x2="0" y2="0" stroke="#888" stroke-width="1" opacity="1"/></g><g class="mark-rule role-axis-domain" pointer-events="none"><line transform="translate(0,0)" x2="600" y2="0" stroke="#888" stroke-width="1" opacity="1"/></g><g class="mark-text role-axis-title" pointer-events="none"><text text-anchor="middle" transform="translate(300,14)" font-family="sans-serif" font-size="11px" font-weight="bold" fill="#000" opacity="1">Proportion</text></g></g><path class="foreground" aria-hidden="true" d="" pointer-events="none" display="none"/></g></g><g class="mark-rect role-mark concat_1_layer_0_marks" role="graphics-object" aria-roledescription="rect mark container"><path aria-label="Proportion: 20%; Computational Group: artificial intelligence (AI)" role="graphics-symbol" aria-roledescription="bar" d="M0,0h120.89552238805973v20h-120.89552238805973Z" fill="#000000" stroke="gray"/><path aria-label="Proportion: 44%; Computational Group: comparative genomics" role="graphics-symbol" aria-roledescription="bar" d="M120.89552238805973,0h264.179104477612v20h-264.179104477612Z" fill="#a6cee3" stroke="gray"/><path aria-label="Proportion: 22%; Computational Group: hybrid" role="graphics-symbol" aria-roledescription="bar" d="M385.0746268656717,0h129.85074626865674v20h-129.85074626865674Z" fill="#1f78b4" stroke="gray"/><path aria-label="Proportion: 14%; Computational Group: sequence composition" role="graphics-symbol" aria-roledescription="bar" d="M514.9253731343284,0h85.07462686567158v20h-85.07462686567158Z" fill="#b2df8a" stroke="gray"/></g><g class="mark-text role-mark concat_1_layer_1_marks" role="graphics-object" aria-roledescription="text mark container"><text aria-label="text_pos: 0.100746268657; proportion: 20.15%; Computational Group: artificial intelligence (AI)" role="graphics-symbol" aria-roledescription="text mark" text-anchor="middle" transform="translate(60.44776119402985,14)" font-family="sans-serif" font-size="12px" fill="#FAF9F6">20.15%</text></g><g class="mark-text role-mark concat_1_layer_2_marks" role="graphics-object" aria-roledescription="text mark container"><text aria-label="text_pos: 0.421641791045; proportion: 44.03%; Computational Group: comparative genomics" role="graphics-symbol" aria-roledescription="text mark" text-anchor="middle" transform="translate(252.98507462686567,14)" font-family="sans-serif" font-size="12px" fill="black">44.03%</text><text aria-label="text_pos: 0.75; proportion: 21.64%; Computational Group: hybrid" role="graphics-symbol" aria-roledescription="text mark" text-anchor="middle" transform="translate(450,14)" font-family="sans-serif" font-size="12px" fill="black">21.64%</text><text aria-label="text_pos: 0.929104477612; proportion: 14.18%; Computational Group: sequence composition" role="graphics-symbol" aria-roledescription="text mark" text-anchor="middle" transform="translate(557.4626865671642,14)" font-family="sans-serif" font-size="12px" fill="black">14.18%</text></g></g><path class="foreground" aria-hidden="true" d="" display="none"/></g></g><g class="mark-group role-legend" role="graphics-symbol" aria-roledescription="legend" aria-label="Symbol legend for fill color with 4 values: artificial intelligence (AI), comparative genomics, hybrid, sequence composition"><g transform="translate(80,420)"><path class="background" aria-hidden="true" d="M0,0h465v13h-465Z" pointer-events="none"/><g><g class="mark-group role-legend-entry"><g transform="translate(0,0)"><path class="background" aria-hidden="true" d="M0,0h0v0h0Z" pointer-events="none"/><g><g class="mark-group role-scope" role="graphics-object" aria-roledescription="group mark container"><g transform="translate(0,0.25)"><path class="background" aria-hidden="true" d="M0,0h118.595703125v12.5h-118.595703125Z" pointer-events="none" opacity="1"/><g><g class="mark-symbol role-legend-symbol" pointer-events="none"><path transform="translate(6,6)" d="M-5,-5h10v10h-10Z" fill="#000000" stroke="gray" stroke-width="1.5" opacity="1"/></g><g class="mark-text role-legend-label" pointer-events="none"><text text-anchor="start" transform="translate(13,9)" font-family="sans-serif" font-size="10px" fill="#000" opacity="1">artificial intelligence (AI)</text></g></g><path class="foreground" aria-hidden="true" d="" pointer-events="none" display="none"/></g><g transform="translate(145,0.25)"><path class="background" aria-hidden="true" d="M0,0h113.0439453125v12.5h-113.0439453125Z" pointer-events="none" opacity="1"/><g><g class="mark-symbol role-legend-symbol" pointer-events="none"><path transform="translate(6,6)" d="M-5,-5h10v10h-10Z" fill="#a6cee3" stroke="gray" stroke-width="1.5" opacity="1"/></g><g class="mark-text role-legend-label" pointer-events="none"><text text-anchor="start" transform="translate(13,9)" font-family="sans-serif" font-size="10px" fill="#000" opacity="1">comparative genomics</text></g></g><path class="foreground" aria-hidden="true" d="" pointer-events="none" display="none"/></g><g transform="translate(285,0.25)"><path class="background" aria-hidden="true" d="M0,0h40.236328125v12.5h-40.236328125Z" pointer-events="none" opacity="1"/><g><g class="mark-symbol role-legend-symbol" pointer-events="none"><path transform="translate(6,6)" d="M-5,-5h10v10h-10Z" fill="#1f78b4" stroke="gray" stroke-width="1.5" opacity="1"/></g><g class="mark-text role-legend-label" pointer-events="none"><text text-anchor="start" transform="translate(13,9)" font-family="sans-serif" font-size="10px" fill="#000" opacity="1">hybrid</text></g></g><path class="foreground" aria-hidden="true" d="" pointer-events="none" display="none"/></g><g transform="translate(352,0.25)"><path class="background" aria-hidden="true" d="M0,0h112.5068359375v12.5h-112.5068359375Z" pointer-events="none" opacity="1"/><g><g class="mark-symbol role-legend-symbol" pointer-events="none"><path transform="translate(6,6)" d="M-5,-5h10v10h-10Z" fill="#b2df8a" stroke="gray" stroke-width="1.5" opacity="1"/></g><g class="mark-text role-legend-label" pointer-events="none"><text text-anchor="start" transform="translate(13,9)" font-family="sans-serif" font-size="10px" fill="#000" opacity="1">sequence composition</text></g></g><path class="foreground" aria-hidden="true" d="" pointer-events="none" display="none"/></g></g></g><path class="foreground" aria-hidden="true" d="" pointer-events="none" display="none"/></g></g></g><path class="foreground" aria-hidden="true" d="" pointer-events="none" display="none"/></g></g></g><path class="foreground" aria-hidden="true" d="" display="none"/></g></g></g></svg>