<svg xmlns="http://www.w3.org/2000/svg" xmlns:xlink="http://www.w3.org/1999/xlink" version="1.1" class="marks" width="649" height="378" viewBox="0 0 649 378"><rect width="649" height="378" fill="white"/><g fill="none" stroke-miterlimit="10" transform="translate(44,10)"><g class="mark-group role-frame root" role="graphics-object" aria-roledescription="group mark container"><g transform="translate(0,0)"><path class="background" aria-hidden="true" d="M0.5,0.5h600v300h-600Z" stroke="#ddd"/><g><g class="mark-group role-axis" aria-hidden="true"><g transform="translate(0.5,0.5)"><path class="background" aria-hidden="true" d="M0,0h0v0h0Z" pointer-events="none"/><g><g class="mark-rule role-axis-grid" pointer-events="none"><line transform="translate(0,300)" x2="600" y2="0" stroke="#ddd" stroke-width="1" opacity="1"/><line transform="translate(0,257)" x2="600" y2="0" stroke="#ddd" stroke-width="1" opacity="1"/><line transform="translate(0,214)" x2="600" y2="0" stroke="#ddd" stroke-width="1" opacity="1"/><line transform="translate(0,171)" x2="600" y2="0" stroke="#ddd" stroke-width="1" opacity="1"/><line transform="translate(0,129)" x2="600" y2="0" stroke="#ddd" stroke-width="1" opacity="1"/><line transform="translate(0,86)" x2="600" y2="0" stroke="#ddd" stroke-width="1" opacity="1"/><line transform="translate(0,43)" x2="600" y2="0" stroke="#ddd" stroke-width="1" opacity="1"/><line transform="translate(0,0)" x2="600" y2="0" stroke="#ddd" stroke-width="1" opacity="1"/></g></g><path class="foreground" aria-hidden="true" d="" pointer-events="none" display="none"/></g></g><g class="mark-group role-axis" role="graphics-symbol" aria-roledescription="axis" aria-label="X-axis titled 'Year' for a discrete scale with 24 values: 2000, 2001, 2002, 2003, 2004, ending with 2023"><g transform="translate(0.5,300.5)"><path class="background" aria-hidden="true" d="M0,0h0v0h0Z" pointer-events="none"/><g><g class="mark-rule role-axis-tick" pointer-events="none"><line transform="translate(12,0)" x2="0" y2="5" stroke="#888" stroke-width="1" opacity="1"/><line transform="translate(37,0)" x2="0" y2="5" stroke="#888" stroke-width="1" opacity="1"/><line transform="translate(62,0)" x2="0" y2="5" stroke="#888" stroke-width="1" opacity="1"/><line transform="translate(87,0)" x2="0" y2="5" stroke="#888" stroke-width="1" opacity="1"/><line transform="translate(112,0)" x2="0" y2="5" stroke="#888" stroke-width="1" opacity="1"/><line transform="translate(137,0)" x2="0" y2="5" stroke="#888" stroke-width="1" opacity="1"/><line transform="translate(162,0)" x2="0" y2="5" stroke="#888" stroke-width="1" opacity="1"/><line transform="translate(187,0)" x2="0" y2="5" stroke="#888" stroke-width="1" opacity="1"/><line transform="translate(212,0)" x2="0" y2="5" stroke="#888" stroke-width="1" opacity="1"/><line transform="translate(237,0)" x2="0" y2="5" stroke="#888" stroke-width="1" opacity="1"/><line transform="translate(262,0)" x2="0" y2="5" stroke="#888" stroke-width="1" opacity="1"/><line transform="translate(287,0)" x2="0" y2="5" stroke="#888" stroke-width="1" opacity="1"/><line transform="translate(312,0)" x2="0" y2="5" stroke="#888" stroke-width="1" opacity="1"/><line transform="translate(337,0)" x2="0" y2="5" stroke="#888" stroke-width="1" opacity="1"/><line transform="translate(362,0)" x2="0" y2="5" stroke="#888" stroke-width="1" opacity="1"/><line transform="translate(387,0)" x2="0" y2="5" stroke="#888" stroke-width="1" opacity="1"/><line transform="translate(412,0)" x2="0" y2="5" stroke="#888" stroke-width="1" opacity="1"/><line transform="translate(437,0)" x2="0" y2="5" stroke="#888" stroke-width="1" opacity="1"/><line transform="translate(462,0)" x2="0" y2="5" stroke="#888" stroke-width="1" opacity="1"/><line transform="translate(487,0)" x2="0" y2="5" stroke="#888" stroke-width="1" opacity="1"/><line transform="translate(512,0)" x2="0" y2="5" stroke="#888" stroke-width="1" opacity="1"/><line transform="translate(537,0)" x2="0" y2="5" stroke="#888" stroke-width="1" opacity="1"/><line transform="translate(562,0)" x2="0" y2="5" stroke="#888" stroke-width="1" opacity="1"/><line transform="translate(587,0)" x2="0" y2="5" stroke="#888" stroke-width="1" opacity="1"/></g><g class="mark-text role-axis-label" pointer-events="none"><text text-anchor="end" transform="translate(12,7) rotate(315) translate(0,8)" font-family="sans-serif" font-size="10px" fill="#000" opacity="1">2000</text><text text-anchor="end" transform="translate(37,7) rotate(315) translate(0,8)" font-family="sans-serif" font-size="10px" fill="#000" opacity="1">2001</text><text text-anchor="end" transform="translate(62,7) rotate(315) translate(0,8)" font-family="sans-serif" font-size="10px" fill="#000" opacity="1">2002</text><text text-anchor="end" transform="translate(87,7) rotate(315) translate(0,8)" font-family="sans-serif" font-size="10px" fill="#000" opacity="1">2003</text><text text-anchor="end" transform="translate(112,7) rotate(315) translate(0,8)" font-family="sans-serif" font-size="10px" fill="#000" opacity="1">2004</text><text text-anchor="end" transform="translate(137,7) rotate(315) translate(0,8)" font-family="sans-serif" font-size="10px" fill="#000" opacity="1">2005</text><text text-anchor="end" transform="translate(162,7) rotate(315) translate(0,8)" font-family="sans-serif" font-size="10px" fill="#000" opacity="1">2006</text><text text-anchor="end" transform="translate(187,7) rotate(315) translate(0,8)" font-family="sans-serif" font-size="10px" fill="#000" opacity="1">2007</text><text text-anchor="end" transform="translate(212,7) rotate(315) translate(0,8)" font-family="sans-serif" font-size="10px" fill="#000" opacity="1">2008</text><text text-anchor="end" transform="translate(237,7) rotate(315) translate(0,8)" font-family="sans-serif" font-size="10px" fill="#000" opacity="1">2009</text><text text-anchor="end" transform="translate(262,7) rotate(315) translate(0,8)" font-family="sans-serif" font-size="10px" fill="#000" opacity="1">2010</text><text text-anchor="end" transform="translate(287,7) rotate(315) translate(0,8)" font-family="sans-serif" font-size="10px" fill="#000" opacity="1">2011</text><text text-anchor="end" transform="translate(312,7) rotate(315) translate(0,8)" font-family="sans-serif" font-size="10px" fill="#000" opacity="1">2012</text><text text-anchor="end" transform="translate(337,7) rotate(315) translate(0,8)" font-family="sans-serif" font-size="10px" fill="#000" opacity="1">2013</text><text text-anchor="end" transform="translate(362,7) rotate(315) translate(0,8)" font-family="sans-serif" font-size="10px" fill="#000" opacity="1">2014</text><text text-anchor="end" transform="translate(387,7) rotate(315) translate(0,8)" font-family="sans-serif" font-size="10px" fill="#000" opacity="1">2015</text><text text-anchor="end" transform="translate(412,7) rotate(315) translate(0,8)" font-family="sans-serif" font-size="10px" fill="#000" opacity="1">2016</text><text text-anchor="end" transform="translate(437,7) rotate(315) translate(0,8)" font-family="sans-serif" font-size="10px" fill="#000" opacity="1">2017</text><text text-anchor="end" transform="translate(462,7) rotate(315) translate(0,8)" font-family="sans-serif" font-size="10px" fill="#000" opacity="1">2018</text><text text-anchor="end" transform="translate(487,7) rotate(315) translate(0,8)" font-family="sans-serif" font-size="10px" fill="#000" opacity="1">2019</text><text text-anchor="end" transform="translate(512,7) rotate(315) translate(0,8)" font-family="sans-serif" font-size="10px" fill="#000" opacity="1">2020</text><text text-anchor="end" transform="translate(537,7) rotate(315) translate(0,8)" font-family="sans-serif" font-size="10px" fill="#000" opacity="1">2021</text><text text-anchor="end" transform="translate(562,7) rotate(315) translate(0,8)" font-family="sans-serif" font-size="10px" fill="#000" opacity="1">2022</text><text text-anchor="end" transform="translate(587,7) rotate(315) translate(0,8)" font-family="sans-serif" font-size="10px" fill="#000" opacity="1">2023</text></g><g class="mark-rule role-axis-domain" pointer-events="none"><line transform="translate(0,0)" x2="600" y2="0" stroke="#888" stroke-width="1" opacity="1"/></g><g class="mark-text role-axis-title" pointer-events="none"><text text-anchor="middle" transform="translate(300,42.80143155740217)" font-family="sans-serif" font-size="11px" font-weight="bold" fill="#000" opacity="1">Year</text></g></g><path class="foreground" aria-hidden="true" d="" pointer-events="none" display="none"/></g></g><g class="mark-group role-axis" role="graphics-symbol" aria-roledescription="axis" aria-label="Y-axis titled 'Cumulative Count' for a linear scale with values from 0 to 140"><g transform="translate(0.5,0.5)"><path class="background" aria-hidden="true" d="M0,0h0v0h0Z" pointer-events="none"/><g><g class="mark-rule role-axis-tick" pointer-events="none"><line transform="translate(0,300)" x2="-5" y2="0" stroke="#888" stroke-width="1" opacity="1"/><line transform="translate(0,257)" x2="-5" y2="0" stroke="#888" stroke-width="1" opacity="1"/><line transform="translate(0,214)" x2="-5" y2="0" stroke="#888" stroke-width="1" opacity="1"/><line transform="translate(0,171)" x2="-5" y2="0" stroke="#888" stroke-width="1" opacity="1"/><line transform="translate(0,129)" x2="-5" y2="0" stroke="#888" stroke-width="1" opacity="1"/><line transform="translate(0,86)" x2="-5" y2="0" stroke="#888" stroke-width="1" opacity="1"/><line transform="translate(0,43)" x2="-5" y2="0" stroke="#888" stroke-width="1" opacity="1"/><line transform="translate(0,0)" x2="-5" y2="0" stroke="#888" stroke-width="1" opacity="1"/></g><g class="mark-text role-axis-label" pointer-events="none"><text text-anchor="end" transform="translate(-7,303)" font-family="sans-serif" font-size="10px" fill="#000" opacity="1">0</text><text text-anchor="end" transform="translate(-7,260.14285714285717)" font-family="sans-serif" font-size="10px" fill="#000" opacity="1">20</text><text text-anchor="end" transform="translate(-7,217.28571428571428)" font-family="sans-serif" font-size="10px" fill="#000" opacity="1">40</text><text text-anchor="end" transform="translate(-7,174.42857142857142)" font-family="sans-serif" font-size="10px" fill="#000" opacity="1">60</text><text text-anchor="end" transform="translate(-7,131.57142857142858)" font-family="sans-serif" font-size="10px" fill="#000" opacity="1">80</text><text text-anchor="end" transform="translate(-7,88.71428571428571)" font-family="sans-serif" font-size="10px" fill="#000" opacity="1">100</text><text text-anchor="end" transform="translate(-7,45.85714285714287)" font-family="sans-serif" font-size="10px" fill="#000" opacity="1">120</text><text text-anchor="end" transform="translate(-7,3)" font-family="sans-serif" font-size="10px" fill="#000" opacity="1">140</text></g><g class="mark-rule role-axis-domain" pointer-events="none"><line transform="translate(0,300)" x2="0" y2="-300" stroke="#888" stroke-width="1" opacity="1"/></g><g class="mark-text role-axis-title" pointer-events="none"><text text-anchor="middle" transform="translate(-27.6845703125,150) rotate(-90) translate(0,-2)" font-family="sans-serif" font-size="11px" font-weight="bold" fill="#000" opacity="1">Cumulative Count</text></g></g><path class="foreground" aria-hidden="true" d="" pointer-events="none" display="none"/></g></g><g class="mark-rect role-mark marks" role="graphics-object" aria-roledescription="rect mark container"><path aria-label="Year: 2000; Cumulative Count: 1; Approach: Others" role="graphics-symbol" aria-roledescription="bar" d="M1.25,297.8571428571429h22.5v2.1428571428571104h-22.5Z" fill="#FFFFFF" stroke="gray"/><path aria-label="Year: 2000; Cumulative Count: 0; Approach: Machine Learning (ML)" role="graphics-symbol" aria-roledescription="bar" d="M1.25,300h22.5v0h-22.5Z" fill="#555555" stroke="gray"/><path aria-label="Year: 2000; Cumulative Count: 0; Approach: Deep Learning (DL)" role="graphics-symbol" aria-roledescription="bar" d="M1.25,300h22.5v0h-22.5Z" fill="#A2A2A2" stroke="gray"/><path aria-label="Year: 2001; Cumulative Count: 3; Approach: Others" role="graphics-symbol" aria-roledescription="bar" d="M26.25,291.42857142857144h22.5v6.428571428571445h-22.5Z" fill="#FFFFFF" stroke="gray"/><path aria-label="Year: 2001; Cumulative Count: 1; Approach: Machine Learning (ML)" role="graphics-symbol" aria-roledescription="bar" d="M26.25,297.8571428571429h22.5v2.1428571428571104h-22.5Z" fill="#555555" stroke="gray"/><path aria-label="Year: 2001; Cumulative Count: 0; Approach: Deep Learning (DL)" role="graphics-symbol" aria-roledescription="bar" d="M26.25,300h22.5v0h-22.5Z" fill="#A2A2A2" stroke="gray"/><path aria-label="Year: 2002; Cumulative Count: 4; Approach: Others" role="graphics-symbol" aria-roledescription="bar" d="M51.25,289.2857142857143h22.5v8.571428571428612h-22.5Z" fill="#FFFFFF" stroke="gray"/><path aria-label="Year: 2002; Cumulative Count: 1; Approach: Machine Learning (ML)" role="graphics-symbol" aria-roledescription="bar" d="M51.25,297.8571428571429h22.5v2.1428571428571104h-22.5Z" fill="#555555" stroke="gray"/><path aria-label="Year: 2002; Cumulative Count: 0; Approach: Deep Learning (DL)" role="graphics-symbol" aria-roledescription="bar" d="M51.25,300h22.5v0h-22.5Z" fill="#A2A2A2" stroke="gray"/><path aria-label="Year: 2003; Cumulative Count: 7; Approach: Others" role="graphics-symbol" aria-roledescription="bar" d="M76.25,282.85714285714283h22.5v15.000000000000057h-22.5Z" fill="#FFFFFF" stroke="gray"/><path aria-label="Year: 2003; Cumulative Count: 1; Approach: Machine Learning (ML)" role="graphics-symbol" aria-roledescription="bar" d="M76.25,297.8571428571429h22.5v2.1428571428571104h-22.5Z" fill="#555555" stroke="gray"/><path aria-label="Year: 2003; Cumulative Count: 0; Approach: Deep Learning (DL)" role="graphics-symbol" aria-roledescription="bar" d="M76.25,300h22.5v0h-22.5Z" fill="#A2A2A2" stroke="gray"/><path aria-label="Year: 2004; Cumulative Count: 9; Approach: Others" role="graphics-symbol" aria-roledescription="bar" d="M101.25,278.57142857142856h22.5v19.285714285714334h-22.5Z" fill="#FFFFFF" stroke="gray"/><path aria-label="Year: 2004; Cumulative Count: 1; Approach: Machine Learning (ML)" role="graphics-symbol" aria-roledescription="bar" d="M101.25,297.8571428571429h22.5v2.1428571428571104h-22.5Z" fill="#555555" stroke="gray"/><path aria-label="Year: 2004; Cumulative Count: 0; Approach: Deep Learning (DL)" role="graphics-symbol" aria-roledescription="bar" d="M101.25,300h22.5v0h-22.5Z" fill="#A2A2A2" stroke="gray"/><path aria-label="Year: 2005; Cumulative Count: 14; Approach: Others" role="graphics-symbol" aria-roledescription="bar" d="M126.25,263.57142857142856h22.5v30h-22.5Z" fill="#FFFFFF" stroke="gray"/><path aria-label="Year: 2005; Cumulative Count: 3; Approach: Machine Learning (ML)" role="graphics-symbol" aria-roledescription="bar" d="M126.25,293.57142857142856h22.5v6.428571428571445h-22.5Z" fill="#555555" stroke="gray"/><path aria-label="Year: 2005; Cumulative Count: 0; Approach: Deep Learning (DL)" role="graphics-symbol" aria-roledescription="bar" d="M126.25,300h22.5v0h-22.5Z" fill="#A2A2A2" stroke="gray"/><path aria-label="Year: 2006; Cumulative Count: 19; Approach: Others" role="graphics-symbol" aria-roledescription="bar" d="M151.25,250.71428571428572h22.5v40.71428571428572h-22.5Z" fill="#FFFFFF" stroke="gray"/><path aria-label="Year: 2006; Cumulative Count: 4; Approach: Machine Learning (ML)" role="graphics-symbol" aria-roledescription="bar" d="M151.25,291.42857142857144h22.5v8.571428571428555h-22.5Z" fill="#555555" stroke="gray"/><path aria-label="Year: 2006; Cumulative Count: 0; Approach: Deep Learning (DL)" role="graphics-symbol" aria-roledescription="bar" d="M151.25,300h22.5v0h-22.5Z" fill="#A2A2A2" stroke="gray"/><path aria-label="Year: 2007; Cumulative Count: 24; Approach: Others" role="graphics-symbol" aria-roledescription="bar" d="M176.25,240h22.5v51.428571428571445h-22.5Z" fill="#FFFFFF" stroke="gray"/><path aria-label="Year: 2007; Cumulative Count: 4; Approach: Machine Learning (ML)" role="graphics-symbol" aria-roledescription="bar" d="M176.25,291.42857142857144h22.5v8.571428571428555h-22.5Z" fill="#555555" stroke="gray"/><path aria-label="Year: 2007; Cumulative Count: 0; Approach: Deep Learning (DL)" role="graphics-symbol" aria-roledescription="bar" d="M176.25,300h22.5v0h-22.5Z" fill="#A2A2A2" stroke="gray"/><path aria-label="Year: 2008; Cumulative Count: 29; Approach: Others" role="graphics-symbol" aria-roledescription="bar" d="M201.25,227.14285714285714h22.5v62.14285714285714h-22.5Z" fill="#FFFFFF" stroke="gray"/><path aria-label="Year: 2008; Cumulative Count: 5; Approach: Machine Learning (ML)" role="graphics-symbol" aria-roledescription="bar" d="M201.25,289.2857142857143h22.5v10.714285714285722h-22.5Z" fill="#555555" stroke="gray"/><path aria-label="Year: 2008; Cumulative Count: 0; Approach: Deep Learning (DL)" role="graphics-symbol" aria-roledescription="bar" d="M201.25,300h22.5v0h-22.5Z" fill="#A2A2A2" stroke="gray"/><path aria-label="Year: 2009; Cumulative Count: 31; Approach: Others" role="graphics-symbol" aria-roledescription="bar" d="M226.25,222.85714285714286h22.5v66.42857142857142h-22.5Z" fill="#FFFFFF" stroke="gray"/><path aria-label="Year: 2009; Cumulative Count: 5; Approach: Machine Learning (ML)" role="graphics-symbol" aria-roledescription="bar" d="M226.25,289.2857142857143h22.5v10.714285714285722h-22.5Z" fill="#555555" stroke="gray"/><path aria-label="Year: 2009; Cumulative Count: 0; Approach: Deep Learning (DL)" role="graphics-symbol" aria-roledescription="bar" d="M226.25,300h22.5v0h-22.5Z" fill="#A2A2A2" stroke="gray"/><path aria-label="Year: 2010; Cumulative Count: 32; Approach: Others" role="graphics-symbol" aria-roledescription="bar" d="M251.25,216.42857142857142h22.5v68.57142857142858h-22.5Z" fill="#FFFFFF" stroke="gray"/><path aria-label="Year: 2010; Cumulative Count: 7; Approach: Machine Learning (ML)" role="graphics-symbol" aria-roledescription="bar" d="M251.25,285h22.5v15h-22.5Z" fill="#555555" stroke="gray"/><path aria-label="Year: 2010; Cumulative Count: 0; Approach: Deep Learning (DL)" role="graphics-symbol" aria-roledescription="bar" d="M251.25,300h22.5v0h-22.5Z" fill="#A2A2A2" stroke="gray"/><path aria-label="Year: 2011; Cumulative Count: 35; Approach: Others" role="graphics-symbol" aria-roledescription="bar" d="M276.25,207.85714285714286h22.5v74.99999999999997h-22.5Z" fill="#FFFFFF" stroke="gray"/><path aria-label="Year: 2011; Cumulative Count: 8; Approach: Machine Learning (ML)" role="graphics-symbol" aria-roledescription="bar" d="M276.25,282.85714285714283h22.5v17.142857142857167h-22.5Z" fill="#555555" stroke="gray"/><path aria-label="Year: 2011; Cumulative Count: 0; Approach: Deep Learning (DL)" role="graphics-symbol" aria-roledescription="bar" d="M276.25,300h22.5v0h-22.5Z" fill="#A2A2A2" stroke="gray"/><path aria-label="Year: 2012; Cumulative Count: 39; Approach: Others" role="graphics-symbol" aria-roledescription="bar" d="M301.25,195h22.5v83.57142857142856h-22.5Z" fill="#FFFFFF" stroke="gray"/><path aria-label="Year: 2012; Cumulative Count: 10; Approach: Machine Learning (ML)" role="graphics-symbol" aria-roledescription="bar" d="M301.25,278.57142857142856h22.5v21.428571428571445h-22.5Z" fill="#555555" stroke="gray"/><path aria-label="Year: 2012; Cumulative Count: 0; Approach: Deep Learning (DL)" role="graphics-symbol" aria-roledescription="bar" d="M301.25,300h22.5v0h-22.5Z" fill="#A2A2A2" stroke="gray"/><path aria-label="Year: 2013; Cumulative Count: 41; Approach: Others" role="graphics-symbol" aria-roledescription="bar" d="M326.25,188.57142857142856h22.5v87.85714285714289h-22.5Z" fill="#FFFFFF" stroke="gray"/><path aria-label="Year: 2013; Cumulative Count: 11; Approach: Machine Learning (ML)" role="graphics-symbol" aria-roledescription="bar" d="M326.25,276.42857142857144h22.5v23.571428571428555h-22.5Z" fill="#555555" stroke="gray"/><path aria-label="Year: 2013; Cumulative Count: 0; Approach: Deep Learning (DL)" role="graphics-symbol" aria-roledescription="bar" d="M326.25,300h22.5v0h-22.5Z" fill="#A2A2A2" stroke="gray"/><path aria-label="Year: 2014; Cumulative Count: 45; Approach: Others" role="graphics-symbol" aria-roledescription="bar" d="M351.25,175.7142857142857h22.5v96.42857142857147h-22.5Z" fill="#FFFFFF" stroke="gray"/><path aria-label="Year: 2014; Cumulative Count: 13; Approach: Machine Learning (ML)" role="graphics-symbol" aria-roledescription="bar" d="M351.25,272.14285714285717h22.5v27.857142857142833h-22.5Z" fill="#555555" stroke="gray"/><path aria-label="Year: 2014; Cumulative Count: 0; Approach: Deep Learning (DL)" role="graphics-symbol" aria-roledescription="bar" d="M351.25,300h22.5v0h-22.5Z" fill="#A2A2A2" stroke="gray"/><path aria-label="Year: 2015; Cumulative Count: 51; Approach: Others" role="graphics-symbol" aria-roledescription="bar" d="M376.25,158.57142857142858h22.5v109.2857142857143h-22.5Z" fill="#FFFFFF" stroke="gray"/><path aria-label="Year: 2015; Cumulative Count: 15; Approach: Machine Learning (ML)" role="graphics-symbol" aria-roledescription="bar" d="M376.25,267.8571428571429h22.5v32.14285714285711h-22.5Z" fill="#555555" stroke="gray"/><path aria-label="Year: 2015; Cumulative Count: 0; Approach: Deep Learning (DL)" role="graphics-symbol" aria-roledescription="bar" d="M376.25,300h22.5v0h-22.5Z" fill="#A2A2A2" stroke="gray"/><path aria-label="Year: 2016; Cumulative Count: 58; Approach: Others" role="graphics-symbol" aria-roledescription="bar" d="M401.25,139.28571428571428h22.5v124.28571428571428h-22.5Z" fill="#FFFFFF" stroke="gray"/><path aria-label="Year: 2016; Cumulative Count: 17; Approach: Machine Learning (ML)" role="graphics-symbol" aria-roledescription="bar" d="M401.25,263.57142857142856h22.5v36.428571428571445h-22.5Z" fill="#555555" stroke="gray"/><path aria-label="Year: 2016; Cumulative Count: 0; Approach: Deep Learning (DL)" role="graphics-symbol" aria-roledescription="bar" d="M401.25,300h22.5v0h-22.5Z" fill="#A2A2A2" stroke="gray"/><path aria-label="Year: 2017; Cumulative Count: 61; Approach: Others" role="graphics-symbol" aria-roledescription="bar" d="M426.25,130.71428571428572h22.5v130.71428571428572h-22.5Z" fill="#FFFFFF" stroke="gray"/><path aria-label="Year: 2017; Cumulative Count: 18; Approach: Machine Learning (ML)" role="graphics-symbol" aria-roledescription="bar" d="M426.25,261.42857142857144h22.5v38.571428571428555h-22.5Z" fill="#555555" stroke="gray"/><path aria-label="Year: 2017; Cumulative Count: 0; Approach: Deep Learning (DL)" role="graphics-symbol" aria-roledescription="bar" d="M426.25,300h22.5v0h-22.5Z" fill="#A2A2A2" stroke="gray"/><path aria-label="Year: 2018; Cumulative Count: 70; Approach: Others" role="graphics-symbol" aria-roledescription="bar" d="M451.25,102.85714285714286h22.5v150h-22.5Z" fill="#FFFFFF" stroke="gray"/><path aria-label="Year: 2018; Cumulative Count: 20; Approach: Machine Learning (ML)" role="graphics-symbol" aria-roledescription="bar" d="M451.25,252.85714285714286h22.5v42.85714285714286h-22.5Z" fill="#555555" stroke="gray"/><path aria-label="Year: 2018; Cumulative Count: 2; Approach: Deep Learning (DL)" role="graphics-symbol" aria-roledescription="bar" d="M451.25,295.7142857142857h22.5v4.285714285714278h-22.5Z" fill="#A2A2A2" stroke="gray"/><path aria-label="Year: 2019; Cumulative Count: 75; Approach: Others" role="graphics-symbol" aria-roledescription="bar" d="M476.25,90.00000000000001h22.5v160.71428571428572h-22.5Z" fill="#FFFFFF" stroke="gray"/><path aria-label="Year: 2019; Cumulative Count: 21; Approach: Machine Learning (ML)" role="graphics-symbol" aria-roledescription="bar" d="M476.25,250.71428571428572h22.5v45h-22.5Z" fill="#555555" stroke="gray"/><path aria-label="Year: 2019; Cumulative Count: 2; Approach: Deep Learning (DL)" role="graphics-symbol" aria-roledescription="bar" d="M476.25,295.7142857142857h22.5v4.285714285714278h-22.5Z" fill="#A2A2A2" stroke="gray"/><path aria-label="Year: 2020; Cumulative Count: 82; Approach: Others" role="graphics-symbol" aria-roledescription="bar" d="M501.25,68.57142857142856h22.5v175.71428571428572h-22.5Z" fill="#FFFFFF" stroke="gray"/><path aria-label="Year: 2020; Cumulative Count: 23; Approach: Machine Learning (ML)" role="graphics-symbol" aria-roledescription="bar" d="M501.25,244.28571428571428h22.5v49.28571428571428h-22.5Z" fill="#555555" stroke="gray"/><path aria-label="Year: 2020; Cumulative Count: 3; Approach: Deep Learning (DL)" role="graphics-symbol" aria-roledescription="bar" d="M501.25,293.57142857142856h22.5v6.428571428571445h-22.5Z" fill="#A2A2A2" stroke="gray"/><path aria-label="Year: 2021; Cumulative Count: 86; Approach: Others" role="graphics-symbol" aria-roledescription="bar" d="M526.25,47.14285714285714h22.5v184.2857142857143h-22.5Z" fill="#FFFFFF" stroke="gray"/><path aria-label="Year: 2021; Cumulative Count: 27; Approach: Machine Learning (ML)" role="graphics-symbol" aria-roledescription="bar" d="M526.25,231.42857142857144h22.5v57.85714285714283h-22.5Z" fill="#555555" stroke="gray"/><path aria-label="Year: 2021; Cumulative Count: 5; Approach: Deep Learning (DL)" role="graphics-symbol" aria-roledescription="bar" d="M526.25,289.2857142857143h22.5v10.714285714285722h-22.5Z" fill="#A2A2A2" stroke="gray"/><path aria-label="Year: 2022; Cumulative Count: 90; Approach: Others" role="graphics-symbol" aria-roledescription="bar" d="M551.25,34.2857142857143h22.5v192.85714285714283h-22.5Z" fill="#FFFFFF" stroke="gray"/><path aria-label="Year: 2022; Cumulative Count: 28; Approach: Machine Learning (ML)" role="graphics-symbol" aria-roledescription="bar" d="M551.25,227.14285714285714h22.5v60.00000000000003h-22.5Z" fill="#555555" stroke="gray"/><path aria-label="Year: 2022; Cumulative Count: 6; Approach: Deep Learning (DL)" role="graphics-symbol" aria-roledescription="bar" d="M551.25,287.14285714285717h22.5v12.857142857142833h-22.5Z" fill="#A2A2A2" stroke="gray"/><path aria-label="Year: 2023; Cumulative Count: 98; Approach: Others" role="graphics-symbol" aria-roledescription="bar" d="M576.25,12.857142857142845h22.5v210.00000000000003h-22.5Z" fill="#FFFFFF" stroke="gray"/><path aria-label="Year: 2023; Cumulative Count: 28; Approach: Machine Learning (ML)" role="graphics-symbol" aria-roledescription="bar" d="M576.25,222.85714285714286h22.5v59.99999999999997h-22.5Z" fill="#555555" stroke="gray"/><path aria-label="Year: 2023; Cumulative Count: 8; Approach: Deep Learning (DL)" role="graphics-symbol" aria-roledescription="bar" d="M576.25,282.85714285714283h22.5v17.142857142857167h-22.5Z" fill="#A2A2A2" stroke="gray"/></g><g class="mark-group role-legend" role="graphics-symbol" aria-roledescription="legend" aria-label="Symbol legend for fill color with 3 values: Deep Learning (DL), Machine Learning (ML), Others"><g transform="translate(130,350)"><path class="background" aria-hidden="true" d="M0,0h313v13h-313Z" pointer-events="none"/><g><g class="mark-group role-legend-entry"><g transform="translate(0,0)"><path class="background" aria-hidden="true" d="M0,0h0v0h0Z" pointer-events="none"/><g><g class="mark-group role-scope" role="graphics-object" aria-roledescription="group mark container"><g transform="translate(0,0.25)"><path class="background" aria-hidden="true" d="M0,0h100.8271484375v12.5h-100.8271484375Z" pointer-events="none" opacity="1"/><g><g class="mark-symbol role-legend-symbol" pointer-events="none"><path transform="translate(6,6)" d="M-5,-5h10v10h-10Z" fill="#A2A2A2" stroke="gray" stroke-width="1.5" opacity="1"/></g><g class="mark-text role-legend-label" pointer-events="none"><text text-anchor="start" transform="translate(13,9)" font-family="sans-serif" font-size="10px" fill="#000" opacity="1">Deep Learning (DL)</text></g></g><path class="foreground" aria-hidden="true" d="" pointer-events="none" display="none"/></g><g transform="translate(127,0.25)"><path class="background" aria-hidden="true" d="M0,0h115.8271484375v12.5h-115.8271484375Z" pointer-events="none" opacity="1"/><g><g class="mark-symbol role-legend-symbol" pointer-events="none"><path transform="translate(6,6)" d="M-5,-5h10v10h-10Z" fill="#555555" stroke="gray" stroke-width="1.5" opacity="1"/></g><g class="mark-text role-legend-label" pointer-events="none"><text text-anchor="start" transform="translate(13,9)" font-family="sans-serif" font-size="10px" fill="#000" opacity="1">Machine Learning (ML)</text></g></g><path class="foreground" aria-hidden="true" d="" pointer-events="none" display="none"/></g><g transform="translate(269,0.25)"><path class="background" aria-hidden="true" d="M0,0h43.009765625v12.5h-43.009765625Z" pointer-events="none" opacity="1"/><g><g class="mark-symbol role-legend-symbol" pointer-events="none"><path transform="translate(6,6)" d="M-5,-5h10v10h-10Z" fill="#FFFFFF" stroke="gray" stroke-width="1.5" opacity="1"/></g><g class="mark-text role-legend-label" pointer-events="none"><text text-anchor="start" transform="translate(13,9)" font-family="sans-serif" font-size="10px" fill="#000" opacity="1">Others</text></g></g><path class="foreground" aria-hidden="true" d="" pointer-events="none" display="none"/></g></g></g><path class="foreground" aria-hidden="true" d="" pointer-events="none" display="none"/></g></g></g><path class="foreground" aria-hidden="true" d="" pointer-events="none" display="none"/></g></g></g><path class="foreground" aria-hidden="true" d="" display="none"/></g></g></g></svg>